<?xml version="1.0" standalone="no"?>
<!DOCTYPE svg PUBLIC "-//W3C//DTD SVG 20010904//EN"
 "http://www.w3.org/TR/2001/REC-SVG-20010904/DTD/svg10.dtd">
<svg version="1.0" xmlns="http://www.w3.org/2000/svg"
 width="260.000000pt" height="260.000000pt" viewBox="0 0 260.000000 260.000000"
 preserveAspectRatio="xMidYMid meet">
<metadata>
Created by potrace 1.11, written by Peter Selinger 2001-2013
</metadata>
<g transform="translate(0.000000,260.000000) scale(0.100000,-0.100000)"
fill="#000000" stroke="none">
<path d="M1735 2012 c-96 -33 -156 -77 -238 -174 -27 -32 -59 -59 -75 -63 -29
-7 -289 -133 -382 -184 -47 -26 -62 -30 -110 -26 -30 2 -111 7 -180 10 -69 3
-145 8 -170 10 -25 2 -106 7 -180 10 -74 3 -143 8 -152 11 -9 3 -25 -3 -36
-14 -10 -10 -26 -21 -35 -25 -34 -13 -18 -35 31 -43 168 -31 404 -85 520 -121
78 -24 82 -26 82 -54 0 -31 37 -61 110 -89 44 -17 61 -37 54 -65 -4 -16 3 -28
31 -49 26 -20 34 -33 30 -47 -5 -14 2 -27 25 -45 21 -18 29 -32 25 -45 -5 -15
2 -20 39 -30 27 -7 46 -18 49 -28 2 -10 37 -40 77 -66 77 -52 77 -57 0 -68
-73 -10 -118 -27 -123 -47 -5 -18 0 -19 92 -18 53 0 107 -4 121 -10 14 -5 75
-46 135 -91 100 -73 135 -93 135 -74 0 6 -40 61 -62 85 -42 44 -34 45 35 3 43
-26 81 -44 84 -41 4 3 -7 20 -23 38 l-29 31 32 -21 c43 -30 51 -11 12 28 -34
34 -97 68 -184 101 -58 21 -166 111 -152 125 10 10 81 6 131 -7 21 -6 73 -10
115 -10 73 0 78 -2 131 -39 l54 -40 -62 -27 c-63 -28 -80 -52 -39 -54 30 -2
26 -2 82 5 137 19 179 8 287 -69 26 -19 53 -35 58 -35 17 0 11 22 -12 47 -32
34 -16 28 33 -13 50 -41 61 -31 28 23 l-24 38 27 -17 c33 -21 38 -22 38 -5 0
15 -65 79 -95 95 -11 5 -45 13 -75 16 -30 4 -77 9 -105 12 -27 3 -59 11 -70
16 -33 17 -85 58 -85 68 0 5 26 23 58 41 31 18 89 64 128 103 106 106 159 233
168 402 3 65 11 94 42 162 37 82 39 83 106 119 37 19 68 41 68 48 0 7 -37 29
-82 49 -46 21 -105 55 -133 75 -75 57 -96 69 -151 86 -65 20 -147 18 -209 -3z
m277 -221 l33 -30 -33 -33 c-27 -27 -40 -33 -76 -33 -29 0 -54 7 -72 21 -32
24 -42 44 -21 44 8 0 34 13 58 30 55 37 71 37 111 1z m34 -212 c-22 -40 -32
-69 -27 -77 4 -7 7 -30 5 -50 -1 -20 -3 -62 -5 -92 -1 -45 -7 -61 -30 -85 -16
-17 -43 -60 -60 -95 -34 -71 -79 -120 -110 -120 -24 0 -119 -47 -119 -59 0
-21 -70 -36 -172 -36 -58 0 -109 3 -113 7 -4 3 -1 16 5 28 11 21 11 22 -42 16
-29 -3 -54 -5 -54 -6 -1 0 -1 -8 0 -17 3 -39 -126 0 -173 51 -24 25 -24 26 -5
40 18 14 18 15 -8 26 -14 7 -24 18 -22 25 3 7 -6 15 -22 19 -14 4 -24 9 -22
12 3 2 19 -1 36 -7 54 -18 59 -4 9 25 -43 25 -59 45 -39 47 4 0 50 2 102 4
138 5 302 15 336 20 126 21 242 57 326 101 14 8 34 14 45 14 26 0 48 37 33 55
-15 18 -5 34 27 46 16 6 23 15 20 24 -4 8 7 25 26 41 18 15 32 36 32 48 0 12
7 22 17 24 9 2 20 12 23 23 4 11 9 18 11 16 3 -3 -11 -33 -30 -68z m-856 -18
c-15 -28 -14 -49 2 -33 15 15 28 15 28 1 0 -14 -20 -32 -53 -47 -36 -16 -34
-16 -40 13 -3 20 3 32 32 55 42 35 45 36 31 11z m-130 -60 c-6 -12 -15 -21
-20 -21 -5 0 -14 -9 -21 -21 -10 -19 -9 -20 13 -14 15 5 9 -4 -20 -25 -31 -23
-40 -36 -33 -43 8 -8 24 -5 57 11 39 19 47 20 60 8 16 -17 10 -20 -64 -31 -53
-9 -47 -18 13 -20 53 -2 74 -15 24 -15 -19 0 -41 -5 -49 -10 -12 -8 -11 -10 8
-10 12 0 22 -5 22 -10 0 -12 -35 -6 -97 16 -65 24 -70 36 -29 78 36 36 46 53
24 40 -33 -19 32 43 71 67 49 32 58 31 41 0z m156 -56 c-23 -18 -21 -20 24
-33 l35 -10 -45 -2 c-44 -2 -72 -1 -78 5 -8 8 13 33 36 42 39 16 50 15 28 -2z
m224 -55 c-18 -11 -14 -14 30 -27 19 -5 34 -15 33 -21 -3 -10 24 -17 50 -13 4
0 7 -3 7 -9 0 -29 -104 6 -165 55 l-30 25 45 0 c32 0 41 -3 30 -10z m-302 -97
c-16 -2 -40 -2 -55 0 -16 2 -3 4 27 4 30 0 43 -2 28 -4z"/>
<path d="M1920 1774 c-33 -15 -34 -16 -16 -30 41 -29 150 -5 119 27 -18 18
-64 19 -103 3z"/>
<path d="M1124 1212 c8 -14 72 -35 89 -29 16 5 -17 22 -62 32 -22 5 -31 4 -27
-3z"/>
<path d="M1204 1152 c8 -14 72 -35 89 -29 16 5 -17 22 -62 32 -22 5 -31 4 -27
-3z"/>
<path d="M1320 1115 c0 -9 62 -36 73 -32 7 3 -5 12 -25 21 -39 17 -48 19 -48
11z"/>
<path d="M1205 1090 c11 -19 63 -41 70 -30 4 6 -9 17 -29 25 -42 18 -49 19
-41 5z"/>
<path d="M1615 1070 c-6 -9 42 -17 68 -12 9 2 17 7 17 11 0 10 -79 10 -85 1z"/>
<path d="M1314 1055 c22 -17 46 -20 46 -6 0 10 -25 21 -48 21 -15 -1 -14 -3 2
-15z"/>
<path d="M1440 1040 c14 -10 44 -26 67 -34 39 -13 53 -12 53 5 0 9 -71 37
-112 44 l-33 5 25 -20z"/>
<path d="M1530 1049 c0 -12 96 -60 104 -52 12 13 5 24 -21 34 -53 21 -83 28
-83 18z"/>
<path d="M1187 1032 c-8 -11 87 -42 102 -32 7 4 -6 12 -30 19 -22 7 -47 15
-54 17 -7 3 -15 1 -18 -4z"/>
</g>
</svg>
